<svg xmlns="http://www.w3.org/2000/svg" xmlns:xlink="http://www.w3.org/1999/xlink" viewBox="0,0,256,256" width="100px" height="100px"><g fill="#ffffff" fill-rule="nonzero" stroke="none" stroke-width="1" stroke-linecap="butt" stroke-linejoin="miter" stroke-miterlimit="10" stroke-dasharray="" stroke-dashoffset="0" font-family="none" font-weight="none" font-size="none" text-anchor="none" style="mix-blend-mode: normal"><g transform="scale(2.56,2.56)"><path d="M31,17c-7.72,0 -14,6.28 -14,14v38c0,7.72 6.28,14 14,14h38c7.72,0 14,-6.28 14,-14v-38c0,-7.72 -6.28,-14 -14,-14zM31,19h38c6.617,0 12,5.383 12,12v38c0,6.617 -5.383,12 -12,12h-38c-6.617,0 -12,-5.383 -12,-12v-38c0,-6.617 5.383,-12 12,-12zM33.5,22c-6.341,0 -11.5,5.159 -11.5,11.5v33c0,6.341 5.159,11.5 11.5,11.5h33c6.341,0 11.5,-5.159 11.5,-11.5v-17c0,-0.276 -0.224,-0.5 -0.5,-0.5c-0.276,0 -0.5,0.224 -0.5,0.5v17c0,5.79 -4.71,10.5 -10.5,10.5h-33c-5.79,0 -10.5,-4.71 -10.5,-10.5v-33c0,-5.79 4.71,-10.5 10.5,-10.5h33c0.323,0 0.64008,0.02083 0.95508,0.04883c0.273,0.026 0.51797,-0.17813 0.54297,-0.45312c0.025,-0.275 -0.17812,-0.51797 -0.45312,-0.54297c-0.345,-0.032 -0.69192,-0.05273 -1.04492,-0.05273zM37,28l3.37305,11.49609l0.00781,5.50391h2.82617v-5.81836l3.29297,-11.17773h-2.88086l-1.75195,8.08984h-0.17773l-1.83984,-8.08984zM50.08984,32c-1.096,0.003 -1.96633,0.28742 -2.61133,0.85742c-0.651,0.565 -0.97461,1.33011 -0.97461,2.28711l-0.00391,-0.00391l0.00586,6.41797c0,1.049 0.31427,1.88486 0.94727,2.50586c0.639,0.621 1.47916,0.93555 2.53516,0.93555c1.1,0 1.95513,-0.30325 2.57813,-0.90625c0.624,-0.607 0.93555,-1.43909 0.93555,-2.49609l-0.00781,-6.38867c0,-0.944 -0.31908,-1.71555 -0.95508,-2.31055c-0.636,-0.601 -1.45122,-0.89844 -2.44922,-0.89844zM56,32l0.00586,10.73438c0,0.757 0.14564,1.32331 0.43164,1.69531c0.29,0.378 0.71516,0.57031 1.28516,0.57031c0.457,0 0.93197,-0.14411 1.41797,-0.41211c0.492,-0.268 0.96111,-0.65978 1.41211,-1.17578l0.33594,1.58789h2.11133v-13h-2.45312l0.00195,9.76172c-0.228,0.274 -0.47981,0.50169 -0.75781,0.67969c-0.269,0.178 -0.49859,0.26758 -0.68359,0.26758c-0.223,0 -0.39614,-0.07312 -0.49414,-0.20312c-0.104,-0.136 -0.15625,-0.35244 -0.15625,-0.64844l-0.00586,-9.85742zM49.96289,34.14258c0.308,0 0.55614,0.083 0.74414,0.25c0.191,0.167 0.28906,0.3843 0.28906,0.6543l0.00391,6.73828c0,0.331 -0.0943,0.5953 -0.2793,0.7793c-0.185,0.192 -0.43495,0.28711 -0.75195,0.28711c-0.31,0 -0.54594,-0.09139 -0.71094,-0.27539c-0.174,-0.183 -0.25391,-0.45011 -0.25391,-0.78711l-0.00391,-6.74219c0,-0.267 0.08962,-0.4863 0.26563,-0.6543c0.179,-0.164 0.41127,-0.25 0.69727,-0.25zM77.5,37c-0.276,0 -0.5,0.224 -0.5,0.5v2c0,0.276 0.224,0.5 0.5,0.5c0.276,0 0.5,-0.224 0.5,-0.5v-2c0,-0.276 -0.224,-0.5 -0.5,-0.5zM77.5,42c-0.276,0 -0.5,0.224 -0.5,0.5v4c0,0.276 0.224,0.5 0.5,0.5c0.276,0 0.5,-0.224 0.5,-0.5v-4c0,-0.276 -0.224,-0.5 -0.5,-0.5zM50,48c-0.523,0 -12.85445,0.00842 -15.68945,0.73242c-1.722,0.437 -3.07706,1.73291 -3.53906,3.37891c-0.762,2.71 -0.77148,8.15867 -0.77148,8.38867c0,0.23 0.00948,5.67967 0.77148,8.38867c0.462,1.647 1.81706,2.94186 3.53906,3.38086c2.835,0.722 15.16645,0.73047 15.68945,0.73047c0.523,0 12.85445,-0.00842 15.68945,-0.73242c1.722,-0.437 3.07706,-1.73291 3.53906,-3.37891c0.762,-2.71 0.77148,-8.15867 0.77148,-8.38867c0,-0.23 -0.00948,-5.67867 -0.77148,-8.38867c-0.462,-1.647 -1.81706,-2.94186 -3.53906,-3.38086c-2.835,-0.722 -15.16645,-0.73047 -15.68945,-0.73047zM50,49c0.127,0 12.72741,0.00822 15.44141,0.69922c1.377,0.352 2.45922,1.37959 2.82422,2.68359c0.725,2.577 0.73438,8.06219 0.73438,8.11719c0,0.055 -0.00838,5.53919 -0.73437,8.11719c-0.365,1.304 -1.44722,2.33164 -2.82422,2.68164c-2.713,0.694 -15.31441,0.70117 -15.44141,0.70117c-0.127,0 -12.72741,-0.00822 -15.44141,-0.69922c-1.377,-0.352 -2.45922,-1.37859 -2.82422,-2.68359c-0.725,-2.577 -0.73437,-8.06219 -0.73437,-8.11719c0,-0.055 0.00838,-5.53919 0.73438,-8.11719c0.365,-1.304 1.44722,-2.33164 2.82422,-2.68164c2.713,-0.694 15.31441,-0.70117 15.44141,-0.70117zM34,52v2.34375h2.50195v14.65625h2.49609v-14.65625h2.50195v-2.34375zM50,52v17h2.25195l0.25195,-1.46484c0.785,0.913 1.81044,1.46484 2.64844,1.46484c0.95,0 1.76022,-0.46781 2.07422,-1.38281c0.149,-0.493 0.26144,-0.94938 0.27344,-1.98438v-6.1543c0.003,-1.159 -0.15827,-2.03825 -0.32227,-2.53125c-0.314,-0.916 -1.07639,-1.41964 -2.02539,-1.43164c-1.213,-0.011 -1.71339,0.58819 -2.65039,1.61719v-5.13281zM62.28711,55.5c-1.263,0 -2.23722,0.37508 -2.94922,1.08008c-0.539,0.516 -0.83789,1.36284 -0.83789,2.46484v6.52734c0,1.091 0.33733,1.86505 0.86133,2.37305c0.715,0.702 1.68728,1.05469 2.98828,1.05469c1.289,0 2.29956,-0.36323 2.97656,-1.11523c0.299,-0.328 0.49794,-0.70619 0.58594,-1.11719c0.011,-0.185 0.08789,-0.69006 0.08789,-1.28906h-2.50195v0.94141c0,0.538 -0.56305,0.98438 -1.24805,0.98438c-0.685,0 -1.24805,-0.44638 -1.24805,-0.98437v-3.58398h4.99805v-3.83594c0,-1.105 -0.28778,-1.90392 -0.80078,-2.41992c-0.686,-0.705 -1.67611,-1.08008 -2.91211,-1.08008zM41,55.54297v10.75391c0,0.844 0.12311,1.4033 0.28711,1.7793c0.276,0.598 0.83867,0.92383 1.63867,0.92383c0.914,0 2.08827,-0.59847 3.07227,-1.60547l0.25195,1.60547h2.25v-13.45703h-2.50195v10.26172c-0.548,0.68 -1.34861,1.19531 -1.84961,1.19531c-0.322,0 -0.58548,-0.13175 -0.64648,-0.46875v-10.98828zM62.25,57.20117c0.685,0 1.24805,0.43628 1.24805,0.98828v3.01563h-2.5v-3.01562h0.00391c0,-0.552 0.56305,-0.98828 1.24805,-0.98828zM54.02734,57.57031c0.674,0 0.97266,0.38423 0.97266,1.61523v6.14453c0,1.231 -0.29866,1.65234 -0.97266,1.65234c-0.387,0 -1.12534,-0.24514 -1.52734,-0.61914v-8.05664c0.402,-0.374 1.13734,-0.73633 1.52734,-0.73633z"></path></g></g></svg>