<svg xmlns="http://www.w3.org/2000/svg" xmlns:xlink="http://www.w3.org/1999/xlink" viewBox="0,0,256,256" width="100px" height="100px"><g fill="#ffffff" fill-rule="nonzero" stroke="none" stroke-width="1" stroke-linecap="butt" stroke-linejoin="miter" stroke-miterlimit="10" stroke-dasharray="" stroke-dashoffset="0" font-family="none" font-weight="none" font-size="none" text-anchor="none" style="mix-blend-mode: normal"><g transform="scale(2.56,2.56)"><path d="M32,11c-0.2652,0.00005 -0.51952,0.10543 -0.70703,0.29297l-14,14c-0.18754,0.18751 -0.29292,0.44183 -0.29297,0.70703v50c0.00006,0.55226 0.44774,0.99994 1,1h15v13c0.00016,0.40437 0.24381,0.76885 0.6174,0.92359c0.37359,0.15474 0.8036,0.06927 1.08963,-0.21656l13.70703,-13.70703h11.58594c0.2652,-0.00005 0.51952,-0.10543 0.70703,-0.29297l24,-24c0.18754,-0.18751 0.29292,-0.44183 0.29297,-0.70703v-40c-0.00006,-0.55226 -0.44774,-0.99994 -1,-1zM32.41406,13h50.58594v38.58594l-23.41406,23.41406h-11.58594c-0.2652,0.00005 -0.51952,0.10543 -0.70703,0.29297l-12.29297,12.29297v-11.58594c-0.00006,-0.55226 -0.44774,-0.99994 -1,-1h-15v-48.58594zM35.5,18c-0.27613,0.00003 -0.49997,0.22387 -0.5,0.5v7c-0.00255,0.18032 0.09219,0.34804 0.24794,0.43894c0.15575,0.0909 0.34838,0.0909 0.50413,0c0.15575,-0.0909 0.25049,-0.25863 0.24794,-0.43894v-6.5h42v15.5c-0.00255,0.18032 0.09219,0.34804 0.24794,0.43894c0.15575,0.0909 0.34838,0.0909 0.50413,0c0.15575,-0.0909 0.25049,-0.25863 0.24794,-0.43894v-16c-0.00003,-0.27613 -0.22387,-0.49997 -0.5,-0.5zM35.49219,27.99219c-0.13261,0.00207 -0.25896,0.05673 -0.35127,0.15197c-0.0923,0.09523 -0.14299,0.22324 -0.14092,0.35584v30c0.00003,0.27613 0.22387,0.49997 0.5,0.5h11.5v9.5c0.00008,0.20218 0.1219,0.38443 0.3087,0.46179c0.1868,0.07737 0.4018,0.03464 0.54482,-0.10828l9.85352,-9.85352h9.79297c0.1326,-0.00003 0.25976,-0.05272 0.35352,-0.14648l11,-11c0.09377,-0.09376 0.14646,-0.22092 0.14648,-0.35352v-4c0.00255,-0.18032 -0.09219,-0.34804 -0.24794,-0.43894c-0.15575,-0.0909 -0.34838,-0.0909 -0.50413,0c-0.15575,0.0909 -0.25049,0.25863 -0.24794,0.43894v3.79297l-10.70703,10.70703h-9.79297c-0.1326,0.00003 -0.25976,0.05272 -0.35352,0.14648l-9.14648,9.14648v-8.79297c-0.00003,-0.27613 -0.22387,-0.49997 -0.5,-0.5h-11.5v-29.5c0.00212,-0.13532 -0.0507,-0.26572 -0.1464,-0.36141c-0.0957,-0.0957 -0.22609,-0.14852 -0.36141,-0.1464zM50.5,28c-0.27613,0.00003 -0.49997,0.22387 -0.5,0.5v5c-0.00255,0.18032 0.09219,0.34804 0.24794,0.43894c0.15575,0.0909 0.34838,0.0909 0.50413,0c0.15575,-0.0909 0.25049,-0.25863 0.24794,-0.43894v-4.5h4v14h-4v-2.5c0.00255,-0.18032 -0.09219,-0.34804 -0.24794,-0.43894c-0.15575,-0.0909 -0.34838,-0.0909 -0.50413,0c-0.15575,0.0909 -0.25049,0.25863 -0.24794,0.43894v3c0.00003,0.27613 0.22387,0.49997 0.5,0.5h5c0.27613,-0.00003 0.49997,-0.22387 0.5,-0.5v-15c-0.00003,-0.27613 -0.22387,-0.49997 -0.5,-0.5zM65.5,28c-0.27613,0.00003 -0.49997,0.22387 -0.5,0.5v15c0.00003,0.27613 0.22387,0.49997 0.5,0.5h5c0.27613,-0.00003 0.49997,-0.22387 0.5,-0.5v-8c0.00255,-0.18032 -0.09219,-0.34804 -0.24794,-0.43894c-0.15575,-0.0909 -0.34838,-0.0909 -0.50413,0c-0.15575,0.0909 -0.25049,0.25863 -0.24794,0.43894v7.5h-4v-14h4v3.5c-0.00255,0.18032 0.09219,0.34804 0.24794,0.43894c0.15575,0.0909 0.34838,0.0909 0.50413,0c0.15575,-0.0909 0.25049,-0.25863 0.24794,-0.43894v-4c-0.00003,-0.27613 -0.22387,-0.49997 -0.5,-0.5zM50.49219,35.49219c-0.13261,0.00207 -0.25896,0.05673 -0.35127,0.15197c-0.0923,0.09523 -0.14299,0.22324 -0.14092,0.35584v1.5c-0.00255,0.18032 0.09219,0.34804 0.24794,0.43894c0.15575,0.0909 0.34838,0.0909 0.50413,0c0.15575,-0.0909 0.25049,-0.25863 0.24794,-0.43894v-1.5c0.00212,-0.13532 -0.0507,-0.26572 -0.1464,-0.36141c-0.0957,-0.0957 -0.22609,-0.14852 -0.36141,-0.1464zM78.49219,36.99219c-0.13261,0.00207 -0.25896,0.05673 -0.35127,0.15197c-0.0923,0.09523 -0.14299,0.22324 -0.14092,0.35584v3c-0.00255,0.18032 0.09219,0.34804 0.24794,0.43894c0.15575,0.0909 0.34838,0.0909 0.50413,0c0.15575,-0.0909 0.25049,-0.25863 0.24794,-0.43894v-3c0.00212,-0.13532 -0.0507,-0.26572 -0.1464,-0.36141c-0.0957,-0.0957 -0.22609,-0.14852 -0.36141,-0.1464z"></path></g></g></svg>
